<?xml version="1.0" encoding="UTF-8"?>
<!DOCTYPE svg PUBLIC "-//W3C//DTD SVG 1.1//EN" "http://www.w3.org/Graphics/SVG/1.1/DTD/svg11.dtd">
<!-- Creator: CorelDRAW X7 -->
<svg xmlns="http://www.w3.org/2000/svg" xml:space="preserve" width="50mm" height="50mm" version="1.1" style="shape-rendering:geometricPrecision; text-rendering:geometricPrecision; image-rendering:optimizeQuality; fill-rule:evenodd; clip-rule:evenodd"
viewBox="0 0 254 254"
 xmlns:xlink="http://www.w3.org/1999/xlink">
 <defs>
  <style type="text/css">
   <![CDATA[
    .fil1 {fill:none}
    .fil0 {fill:white;fill-opacity:0.301961}
   ]]>
  </style>
 </defs>
 <g id="Слой_x0020_1">
  <metadata id="CorelCorpID_0Corel-Layer"/>
  <path class="fil0" d="M49 49l155 0 0 155 -155 0 0 -155zm128 90c1,-1 2,-2 3,-2 1,-1 7,-5 8,-6 -1,-2 -4,-5 -6,-6 -4,-4 -9,-5 -15,-5 -6,0 -10,2 -14,4 -6,5 -8,12 -6,20 0,5 4,8 7,11 4,3 12,7 17,9 4,2 6,4 7,7 0,2 -1,3 -1,4 -3,4 -8,5 -14,3 -3,0 -3,-1 -5,-3 -3,-2 -3,-3 -4,-4l0 -1c0,0 0,0 0,0l-6 4c-1,0 -2,1 -3,1l-2 2c-1,0 -1,0 -1,0 1,2 4,6 6,8 0,0 0,0 1,1 6,4 12,6 20,6 9,0 18,-4 22,-13 1,-4 1,-10 0,-14 -1,-5 -4,-8 -7,-10 -7,-5 -19,-8 -22,-12 -3,-3 -2,-9 4,-10 3,-1 5,0 7,1 1,1 1,1 2,2 1,1 1,2 2,3zm-94 -6c1,1 0,1 1,1l19 0 0 56c0,0 0,0 0,0l1 1 14 0 0 -57 20 0 0 -13c-2,0 -54,0 -54,0 0,0 0,0 0,0 0,0 0,1 -1,1l0 2c0,2 0,7 0,9z"/>
  <polygon class="fil1" points="0,254 254,254 254,0 0,0 "/>
 </g>
</svg>
