<?xml version="1.0" encoding="UTF-8"?>
<!DOCTYPE svg PUBLIC "-//W3C//DTD SVG 1.1//EN" "http://www.w3.org/Graphics/SVG/1.1/DTD/svg11.dtd">
<!-- Creator: CorelDRAW X7 -->
<svg xmlns="http://www.w3.org/2000/svg" xml:space="preserve" width="50mm" height="50mm" version="1.1" style="shape-rendering:geometricPrecision; text-rendering:geometricPrecision; image-rendering:optimizeQuality; fill-rule:evenodd; clip-rule:evenodd"
viewBox="0 0 726 726"
 xmlns:xlink="http://www.w3.org/1999/xlink">
 <defs>
  <style type="text/css">
   <![CDATA[
    .fil1 {fill:none}
    .fil0 {fill:white;fill-opacity:0.301961}
   ]]>
  </style>
 </defs>
 <g id="Слой_x0020_1">
  <metadata id="CorelCorpID_0Corel-Layer"/>
  <path class="fil0" d="M363 535c188,0 340,-77 340,-172 0,-96 -152,-173 -340,-173 -188,0 -341,77 -341,173 0,95 153,172 341,172zm170 -225c16,0 26,3 31,8 5,6 6,16 4,30 -3,14 -9,25 -17,31 -8,6 -20,9 -36,9l-25 0 15 -78 28 0zm-318 0c16,0 26,3 31,8 5,6 7,16 4,30 -3,14 -8,25 -16,31 -8,6 -20,9 -37,9l-25 0 16 -78 27 0zm-99 157l41 0 10 -49 34 0c16,0 29,-2 38,-5 10,-4 19,-9 28,-17 6,-6 12,-13 16,-20 4,-8 7,-16 9,-25 4,-22 1,-40 -10,-52 -10,-12 -28,-19 -51,-19l-78 0 -37 187zm206 -236l40 0 -9 49 36 0c22,0 38,4 47,12 8,8 11,21 7,39l-17 87 -41 0 16 -83c2,-10 2,-16 -2,-19 -3,-4 -10,-5 -20,-5l-32 0 -21 107 -40 0 36 -187zm112 236l41 0 9 -49 35 0c16,0 28,-2 38,-5 10,-4 19,-9 27,-17 7,-6 13,-13 17,-20 4,-8 7,-16 9,-25 4,-22 1,-40 -10,-52 -11,-12 -28,-19 -51,-19l-79 0 -36 187z"/>
  <polygon class="fil1" points="0,726 726,726 726,0 0,0 "/>
 </g>
</svg>
