<?xml version="1.0" encoding="UTF-8"?>
<!DOCTYPE svg PUBLIC "-//W3C//DTD SVG 1.1//EN" "http://www.w3.org/Graphics/SVG/1.1/DTD/svg11.dtd">
<!-- Creator: CorelDRAW X7 -->
<svg xmlns="http://www.w3.org/2000/svg" xml:space="preserve" width="50mm" height="50mm" version="1.1" style="shape-rendering:geometricPrecision; text-rendering:geometricPrecision; image-rendering:optimizeQuality; fill-rule:evenodd; clip-rule:evenodd"
viewBox="0 0 1916 1916"
 xmlns:xlink="http://www.w3.org/1999/xlink">
 <defs>
  <style type="text/css">
   <![CDATA[
    .fil1 {fill:none}
    .fil0 {fill:white;fill-opacity:0.301961}
   ]]>
  </style>
 </defs>
 <g id="Слой_x0020_1">
  <metadata id="CorelCorpID_0Corel-Layer"/>
  <path class="fil0" d="M497 1136c3,-3 19,-43 22,-51 7,-17 14,-34 21,-51 14,-34 28,-68 43,-102 57,-135 113,-272 170,-407 1,-4 84,-198 85,-204l-341 0 0 815zm820 328c-1,-10 5,-50 27,-51 24,-1 28,39 26,51l-53 0zm100 38c3,-6 2,-33 2,-41 -1,-12 -2,-24 -6,-35 -7,-22 -18,-38 -36,-46 -21,-11 -48,-8 -66,3 -16,10 -28,25 -36,46 -17,41 -14,103 11,134 10,14 27,26 53,30 24,3 50,-1 71,-9 0,-5 -6,-36 -7,-38 -17,4 -41,12 -62,3 -17,-8 -24,-24 -24,-48l100 1zm-447 -87c25,-7 29,43 30,65 0,23 -2,70 -23,74 -15,2 -22,-11 -25,-23 -7,-23 -13,-108 18,-116zm-76 85c1,14 3,28 8,40 4,12 10,24 17,31 17,19 42,28 69,22 56,-11 68,-75 65,-125 -1,-18 -6,-41 -15,-56 -17,-29 -45,-44 -79,-37 -55,12 -69,76 -65,125zm-318 -22c4,-21 8,-43 12,-65 2,-8 10,-64 11,-66 2,2 9,58 11,66 3,21 8,44 11,66l-45 -1zm-20 113c4,-16 10,-48 14,-66 0,-4 0,-5 3,-5l53 0 14 71 52 0c-1,-5 -3,-13 -4,-19l-40 -203c-3,-12 -5,-25 -8,-37 -1,-4 -6,-36 -8,-36l-63 0 -64 295 51 0zm203 -85c-3,-24 -2,-64 12,-79 8,-10 21,-12 30,-1 8,9 9,24 9,38 0,15 0,31 0,46 0,48 -30,47 -41,31 -6,-9 -9,-22 -10,-35zm51 -110c-2,-2 -4,-7 -7,-9 -8,-10 -18,-14 -32,-13 -80,2 -83,167 -36,207 22,20 55,18 74,-5 2,-3 4,-7 6,-9 2,2 2,9 3,12 0,4 0,9 1,12 4,1 39,1 46,0 1,-10 -1,-25 -1,-36 -1,-13 -1,-26 -1,-38l0 -153c0,-25 1,-51 0,-76l-53 0 0 108zm346 24c14,-5 23,8 27,18 4,12 6,25 6,39 2,89 -37,84 -48,57 -6,-13 -4,-26 -4,-41 0,-21 -6,-66 19,-73zm-25 146c2,1 4,6 6,9 20,29 54,23 73,5 6,-6 9,-10 14,-18 21,-33 22,-93 14,-130 -8,-33 -27,-64 -65,-58 -12,2 -22,9 -29,17 -2,2 -5,7 -7,8l-1 -111 -53 0c-1,25 0,51 0,76 0,25 0,51 0,76 0,37 1,78 0,115 0,10 -2,26 -1,36l45 0c1,-5 2,-22 4,-25zm-174 -941c-1,1 -1,2 -1,3 -1,2 -2,4 -3,6l-32 76c-13,29 -25,58 -37,88l-56 131c-3,7 -17,39 -19,44l159 0c2,3 29,73 33,82 3,8 31,82 33,82l141 0 -216 -514 -2 2zm462 -304l-340 0c0,4 40,97 42,103l128 305c53,128 107,255 159,382 3,7 8,20 11,25l0 -815z"/>
  <polygon class="fil1" points="0,1916 1916,1916 1916,0 0,0 "/>
 </g>
</svg>
