<?xml version="1.0" encoding="UTF-8"?>
<!DOCTYPE svg PUBLIC "-//W3C//DTD SVG 1.1//EN" "http://www.w3.org/Graphics/SVG/1.1/DTD/svg11.dtd">
<!-- Creator: CorelDRAW X7 -->
<svg xmlns="http://www.w3.org/2000/svg" xml:space="preserve" width="50mm" height="50mm" version="1.1" style="shape-rendering:geometricPrecision; text-rendering:geometricPrecision; image-rendering:optimizeQuality; fill-rule:evenodd; clip-rule:evenodd"
viewBox="0 0 232 232"
 xmlns:xlink="http://www.w3.org/1999/xlink">
 <defs>
  <style type="text/css">
   <![CDATA[
    .fil0 {fill:none}
    .fil1 {fill:white}
   ]]>
  </style>
 </defs>
 <g id="Слой_x0020_1">
  <metadata id="CorelCorpID_0Corel-Layer"/>
  <path class="fil0" d="M116 0c64,0 116,52 116,116 0,64 -52,116 -116,116 -64,0 -116,-52 -116,-116 0,-64 52,-116 116,-116z"/>
  <path class="fil1" d="M89 53l55 0c5,0 9,4 9,9l0 108c0,5 -4,9 -9,9l-55 0c-5,0 -10,-4 -10,-9l0 -108c0,-5 5,-9 10,-9zm18 8c-1,0 -2,-1 -2,-1 0,-1 1,-1 2,-1l19 0c1,0 1,0 1,1 0,0 0,1 -1,1l-19 0zm9 106c3,0 5,2 5,4 0,3 -2,5 -5,5 -2,0 -4,-2 -4,-5 0,-2 2,-4 4,-4zm-30 -101l61 0 0 97 -61 0 0 -97z"/>
 </g>
</svg>
