<?xml version="1.0" encoding="UTF-8"?>
<!DOCTYPE svg PUBLIC "-//W3C//DTD SVG 1.1//EN" "http://www.w3.org/Graphics/SVG/1.1/DTD/svg11.dtd">
<!-- Creator: CorelDRAW X7 -->
<svg xmlns="http://www.w3.org/2000/svg" xml:space="preserve" width="50mm" height="50mm" version="1.1" style="shape-rendering:geometricPrecision; text-rendering:geometricPrecision; image-rendering:optimizeQuality; fill-rule:evenodd; clip-rule:evenodd"
viewBox="0 0 277 277"
 xmlns:xlink="http://www.w3.org/1999/xlink">
 <defs>
  <style type="text/css">
   <![CDATA[
    .fil0 {fill:none}
    .fil1 {fill:white}
   ]]>
  </style>
 </defs>
 <g id="Слой_x0020_1">
  <metadata id="CorelCorpID_0Corel-Layer"/>
  <path class="fil0" d="M139 0c76,0 138,62 138,139 0,76 -62,138 -138,138 -77,0 -139,-62 -139,-138 0,-77 62,-139 139,-139z"/>
  <path class="fil1" d="M188 130c0,0 0,3 0,4 0,3 0,12 0,13 -1,0 -10,0 -12,0 -3,0 -4,5 -5,7 -1,3 -3,5 -5,7 0,1 -1,2 -1,4 0,2 1,3 2,4 0,1 4,7 4,8l-1 0c0,0 0,0 0,0l-14 9c-1,-1 -5,-8 -6,-10 -2,-4 -6,-2 -11,-2 -5,0 -10,-2 -12,2l-5 10c-1,-1 -3,-2 -4,-3l-8 -4c-1,0 -2,-1 -4,-2 1,-1 5,-8 6,-9 2,-4 -1,-6 -2,-8 -4,-5 -5,-10 -7,-12 -3,-2 -12,0 -14,-1 0,0 0,1 0,0l0 -17c1,0 10,0 12,0 1,0 3,-2 3,-3 1,-1 1,-2 2,-4 4,-9 9,-8 4,-15 0,-2 -1,-3 -2,-4 0,-1 -1,-3 -2,-4 1,-1 3,-1 4,-2l11 -7c1,1 5,9 6,10 2,4 6,2 11,2 5,0 10,2 12,-2 0,-1 5,-9 5,-10l16 9c-1,1 -5,8 -6,10 -2,4 1,6 4,9 2,5 3,8 5,10 3,2 12,0 14,1zm-51 -8c5,0 10,2 12,4 3,3 5,6 6,11 1,9 -7,17 -15,18 -10,0 -17,-7 -18,-15 0,-9 6,-17 15,-18zm-2 -9c-3,1 -2,0 -5,1 -5,2 -9,5 -12,8 -3,5 -6,12 -5,20 1,7 5,13 9,17 3,2 5,3 9,4 6,2 15,1 21,-2 3,-2 5,-4 7,-6 8,-11 7,-28 -4,-36 -3,-3 -5,-3 -9,-5 -2,-1 -8,-2 -11,-1zm-55 11l0 29 0 0c0,2 0,2 2,3 1,1 2,1 4,1 4,0 8,0 11,0 2,5 4,7 5,8 -1,3 -3,5 -4,8 -1,2 -4,5 -2,8 1,2 4,3 6,5l15 8c2,1 5,4 8,3 3,-1 5,-7 7,-10 0,-1 1,-3 2,-3 1,0 3,0 5,0 1,0 3,0 5,0 1,2 2,4 4,7 0,1 1,2 2,3 3,6 8,1 11,-1 4,-2 10,-6 14,-8 2,-1 6,-3 7,-5 1,-3 -1,-5 -3,-8 -1,-2 -3,-5 -4,-7 1,-1 2,-3 3,-4l2 -4c4,-1 7,0 11,0 6,0 5,-2 6,-4l0 -29c-1,-2 0,-4 -6,-4 -4,0 -7,0 -11,0 -1,-1 -2,-3 -2,-4l-3 -4c1,-2 1,-3 2,-4l4 -7c3,-6 -3,-7 -6,-10l-15 -8c-2,-1 -5,-4 -8,-3 -2,1 -3,4 -5,6l-4 7c-1,0 -3,0 -5,0 -1,0 -3,0 -5,0l-6 -10c-3,-6 -8,-1 -11,1 -4,2 -11,6 -14,8 -2,0 -3,1 -4,2 -6,3 -2,7 0,11 0,1 4,6 4,7 -1,1 -2,3 -3,4 0,1 -1,1 -1,2 0,1 -1,2 -1,2 -4,1 -7,0 -11,0 -6,0 -5,2 -6,4z"/>
 </g>
</svg>
