<?xml version="1.0" encoding="UTF-8"?>
<!DOCTYPE svg PUBLIC "-//W3C//DTD SVG 1.1//EN" "http://www.w3.org/Graphics/SVG/1.1/DTD/svg11.dtd">
<!-- Creator: CorelDRAW X7 -->
<svg xmlns="http://www.w3.org/2000/svg" xml:space="preserve" width="50mm" height="50mm" version="1.1" style="shape-rendering:geometricPrecision; text-rendering:geometricPrecision; image-rendering:optimizeQuality; fill-rule:evenodd; clip-rule:evenodd"
viewBox="0 0 232 232"
 xmlns:xlink="http://www.w3.org/1999/xlink">
 <defs>
  <style type="text/css">
   <![CDATA[
    .fil0 {fill:none}
    .fil1 {fill:white}
   ]]>
  </style>
 </defs>
 <g id="Слой_x0020_1">
  <metadata id="CorelCorpID_0Corel-Layer"/>
  <path class="fil0" d="M116 0c64,0 116,52 116,116 0,64 -52,116 -116,116 -64,0 -116,-52 -116,-116 0,-64 52,-116 116,-116z"/>
  <path class="fil1" d="M70 108l-10 -6 6 -12c3,-4 9,-16 12,-19 1,1 7,6 7,7 0,2 -10,19 -11,22 -1,2 -4,6 -4,8zm6 32c0,4 4,9 9,2 2,-2 11,-11 11,-12 0,-4 -1,-6 -6,-6 -2,0 -7,5 -8,7 -2,2 -6,6 -6,9zm8 8c0,4 2,6 6,6 2,0 6,-6 8,-8 0,-1 6,-7 6,-8l0 -2c0,-3 -3,-4 -5,-4 -3,1 -4,3 -6,5 -2,2 -9,9 -9,11zm64 -79c1,0 2,1 3,2l21 18c-1,1 -6,7 -7,7 -3,-1 -20,-16 -23,-19 1,-2 5,-6 6,-8zm-32 3c-8,0 -16,2 -23,3 -4,1 -5,-2 -11,-6 -5,-5 -6,-3 -12,5 -5,8 -9,16 -14,25 0,0 0,0 0,1l-1 1c0,0 0,0 0,0 -1,2 0,2 0,4 4,1 9,6 14,8 1,0 1,0 2,1 0,0 1,4 1,5 0,2 -1,2 -2,3 -2,3 -4,5 -4,10 0,3 5,7 11,1l8 -8c7,-7 1,-12 -3,-12 -3,0 -4,2 -6,3 0,-1 0,-2 0,-3 -1,-5 -1,-5 1,-9l9 -17c5,-9 5,-7 17,-9 5,0 11,0 16,0 2,0 3,0 5,0l0 1c-5,0 -12,0 -16,3l-5 4c-9,7 -1,11 6,11 4,0 6,-2 10,-3 12,-2 10,-3 17,3 1,1 1,1 2,2l8 7c5,4 10,8 15,13 6,6 -2,10 -4,10 -2,0 -6,-5 -8,-6 -1,-2 -6,-6 -8,-6 -1,0 -3,0 -3,2 0,2 12,11 14,13 3,3 -2,10 -3,10 -3,0 -11,-7 -13,-9 -3,-2 -4,-4 -7,-4 -1,0 -1,2 -1,3 0,2 13,11 15,13 3,2 1,9 -4,9 -4,0 -21,-21 -21,-10 0,1 7,6 8,7l6 5c1,1 2,1 2,2 0,4 -4,6 -7,6 -1,0 -3,-1 -4,-2l-8 -6c-1,-1 -2,-1 -2,-2 -1,0 -2,-1 -2,-1 2,-4 6,-6 4,-11 -1,-3 -3,-3 -6,-3 -3,0 -5,4 -7,6 -1,1 -1,1 -2,2l-3 4c-1,1 -1,1 -2,2 -4,4 5,14 12,3 5,3 15,13 20,13 5,0 9,-2 11,-6 0,-1 0,-2 1,-2 1,-3 8,-1 10,-9 1,-3 0,-4 3,-6 1,-1 1,-1 2,-2 2,-2 3,-4 4,-8 1,-4 3,-3 7,-6 2,-1 3,-5 3,-8 0,-5 -3,-5 -5,-8 1,-2 3,-3 3,-6 1,-1 1,-3 1,-4 1,-2 1,-2 2,-4 3,-5 12,-10 7,-14l-3 -3c-1,0 -1,-1 -2,-1 -1,-1 -1,-1 -2,-2 0,0 -1,-1 -2,-1l-7 -7c-1,0 -1,-1 -2,-1 -12,-11 -9,-11 -19,2 -1,1 -2,3 -3,3 -2,2 -6,-1 -9,-2 -3,-1 -8,-2 -11,-2z"/>
 </g>
</svg>
