<?xml version="1.0" encoding="UTF-8"?>
<!DOCTYPE svg PUBLIC "-//W3C//DTD SVG 1.1//EN" "http://www.w3.org/Graphics/SVG/1.1/DTD/svg11.dtd">
<!-- Creator: CorelDRAW X7 -->
<svg xmlns="http://www.w3.org/2000/svg" xml:space="preserve" width="50mm" height="50mm" version="1.1" style="shape-rendering:geometricPrecision; text-rendering:geometricPrecision; image-rendering:optimizeQuality; fill-rule:evenodd; clip-rule:evenodd"
viewBox="0 0 308 308"
 xmlns:xlink="http://www.w3.org/1999/xlink">
 <defs>
  <style type="text/css">
   <![CDATA[
    .fil1 {fill:none}
    .fil0 {fill:white;fill-opacity:0.301961}
   ]]>
  </style>
 </defs>
 <g id="Слой_x0020_1">
  <metadata id="CorelCorpID_0Corel-Layer"/>
  <path class="fil0" d="M212 239l-58 15 -59 -15 -13 -146 144 0 -14 146zm-24 -176l8 0 0 -10 -22 0c0,0 0,5 0,10 3,3 5,4 9,8 -2,0 -9,0 -9,0l0 9 22 0 0 -9 -8 -8zm-32 0l9 0 0 -10 -22 0c0,0 0,5 0,10 3,3 4,4 9,8 -3,0 -9,0 -9,0l0 9 22 0 0 -9 -9 -8zm-35 8l0 -8 12 0 0 -10 -22 0 0 27 22 0 0 -9 -12 0zm-13 51l90 0 -1 18 -43 18 41 0 -5 55 -36 11 -37 -11 -2 -28 18 0 1 15 20 5 20 -6 1 -23 -62 0 -1 -18 44 -18 -46 0 -2 -18z"/>
  <polygon class="fil1" points="0,308 308,308 308,0 0,0 "/>
 </g>
</svg>
