<?xml version="1.0" encoding="UTF-8"?>
<!DOCTYPE svg PUBLIC "-//W3C//DTD SVG 1.1//EN" "http://www.w3.org/Graphics/SVG/1.1/DTD/svg11.dtd">
<!-- Creator: CorelDRAW X7 -->
<svg xmlns="http://www.w3.org/2000/svg" xml:space="preserve" width="50mm" height="50mm" version="1.1" style="shape-rendering:geometricPrecision; text-rendering:geometricPrecision; image-rendering:optimizeQuality; fill-rule:evenodd; clip-rule:evenodd"
viewBox="0 0 378 378"
 xmlns:xlink="http://www.w3.org/1999/xlink">
 <defs>
  <style type="text/css">
   <![CDATA[
    .fil1 {fill:none}
    .fil0 {fill:white;fill-opacity:0.301961}
   ]]>
  </style>
 </defs>
 <g id="Слой_x0020_1">
  <metadata id="CorelCorpID_0Corel-Layer"/>
  <path class="fil0" d="M117 293c2,0 3,1 5,1l67 19 18 -5c12,-3 24,-7 36,-10 3,-1 6,-2 9,-3 3,-1 6,-2 9,-2 0,-2 0,-4 0,-6 0,-2 0,-4 1,-5l2 -28c0,-2 0,-4 1,-6 0,-1 0,-4 0,-5l2 -23c1,-5 1,-12 2,-17l2 -27c0,-6 1,-12 2,-17 0,-5 1,-12 1,-17 0,-1 0,-2 0,-3l1 -8c0,-3 2,-15 2,-17l-176 0 4 39c0,2 0,4 0,5 1,8 2,15 2,23l1 8c0,3 1,6 1,9 0,4 1,12 1,16l2 17c0,2 0,4 0,6l3 33c1,4 1,8 1,11 0,4 1,8 1,12zm56 -205l-16 0 0 11 27 0 0 -34 -11 0 0 23zm16 -15c0,0 1,2 2,2l6 6c0,1 1,1 1,2l6 6 -13 0c-1,0 -2,0 -2,1l0 8c0,1 0,1 1,1l31 0 0 -7c0,-2 -2,-2 -2,-3l-4 -4c0,0 -1,-1 -1,-1l-9 -10 15 0 0 -9 -31 0 0 8zm51 111l-5 -47 -87 0 -7 80 75 0 -3 28 -24 7 -25 -7 -1 -17 -22 0 3 34 45 12 45 -12 6 -67 -75 0 3 -35 48 1 2 23 22 0z"/>
  <polygon class="fil1" points="0,378 378,378 378,0 0,0 "/>
 </g>
</svg>
