<?xml version="1.0" encoding="UTF-8"?>
<!DOCTYPE svg PUBLIC "-//W3C//DTD SVG 1.1//EN" "http://www.w3.org/Graphics/SVG/1.1/DTD/svg11.dtd">
<!-- Creator: CorelDRAW X7 -->
<svg xmlns="http://www.w3.org/2000/svg" xml:space="preserve" width="50mm" height="50mm" version="1.1" style="shape-rendering:geometricPrecision; text-rendering:geometricPrecision; image-rendering:optimizeQuality; fill-rule:evenodd; clip-rule:evenodd"
viewBox="0 0 494 494"
 xmlns:xlink="http://www.w3.org/1999/xlink">
 <defs>
  <style type="text/css">
   <![CDATA[
    .fil1 {fill:none}
    .fil0 {fill:white;fill-opacity:0.301961}
   ]]>
  </style>
 </defs>
 <g id="Слой_x0020_1">
  <metadata id="CorelCorpID_0Corel-Layer"/>
  <path class="fil0" d="M153 383l-21 -234 229 0 -20 233 -94 26 -94 -25zm152 -298l15 0 0 30 20 0 0 14 -35 0 0 -44zm-56 0l15 0 10 16 9 -16 15 0 0 44 -14 0 0 -22 -10 16 -1 0 -10 -16 0 22 -14 0 0 -44zm-34 15l-12 0 0 -15 40 0 0 15 -13 0 0 29 -15 0 0 -29 0 0zm-61 -15l14 0 0 15 14 0 0 -15 14 0 0 44 -14 0 0 -15 -14 0 0 15 -14 0 0 -44 0 0zm93 170l0 0 -38 0 -3 -30 41 0 0 0 69 0 0 0 1 -6 1 -15 1 -7 -72 0 0 0 -72 0 1 7 7 79 64 0 0 0 35 0 -3 37 -32 9 0 0 0 0 -32 -9 -2 -22 -16 0 -13 0 4 45 59 16 0 0 0 0 59 -16 0 -5 7 -76 0 -7 -7 0 -59 0z"/>
  <polygon class="fil1" points="0,494 494,494 494,0 0,0 "/>
 </g>
</svg>
