<?xml version="1.0" encoding="UTF-8"?>
<!DOCTYPE svg PUBLIC "-//W3C//DTD SVG 1.1//EN" "http://www.w3.org/Graphics/SVG/1.1/DTD/svg11.dtd">
<!-- Creator: CorelDRAW X7 -->
<svg xmlns="http://www.w3.org/2000/svg" xml:space="preserve" width="50mm" height="50mm" version="1.1" style="shape-rendering:geometricPrecision; text-rendering:geometricPrecision; image-rendering:optimizeQuality; fill-rule:evenodd; clip-rule:evenodd"
viewBox="0 0 1419 1419"
 xmlns:xlink="http://www.w3.org/1999/xlink">
 <defs>
  <style type="text/css">
   <![CDATA[
    .fil1 {fill:none}
    .fil0 {fill:white;fill-opacity:0.301961}
   ]]>
  </style>
 </defs>
 <g id="Слой_x0020_1">
  <metadata id="CorelCorpID_0Corel-Layer"/>
  <path class="fil0" d="M965 688l42 0c1,-9 0,-32 0,-43l43 0 0 43c8,0 32,0 42,0l0 42 -42 1c-1,9 0,31 0,42l-43 0 0 -42 -42 -1 0 -42zm-387 91c3,9 15,23 21,30 22,27 66,48 106,49 43,1 83,-16 111,-44 7,-8 16,-19 22,-29 2,1 13,7 16,8l49 27c11,6 22,13 33,18l28 16c4,2 3,1 4,3 -1,2 -3,6 -5,8 -110,180 -368,192 -494,19 -4,-5 -8,-10 -11,-16 -3,-4 -7,-12 -9,-15 -4,-8 -9,-16 -12,-25 -30,-70 -33,-144 -9,-216 51,-152 222,-237 374,-186 60,21 114,59 149,109 3,5 13,18 15,23 -18,9 -46,26 -65,37 -5,3 -61,36 -65,36 -2,-5 -11,-16 -15,-20 -16,-19 -41,-35 -66,-44 -74,-25 -159,17 -186,92 -6,20 -10,40 -8,63 2,17 9,45 17,57zm-270 145c4,21 28,29 42,37l26 15c8,5 17,9 25,14l166 93c4,2 8,5 12,7 4,2 9,5 13,7l89 50c2,1 4,2 6,4 31,15 52,-5 79,-20 17,-8 36,-20 51,-28 17,-9 34,-19 51,-29l76 -43c2,-1 5,-2 7,-3 2,-2 3,-3 6,-4 17,-9 39,-22 57,-32 16,-9 41,-24 57,-32 17,-9 36,-17 41,-38 1,-5 2,-8 2,-14l0 -384c0,-26 0,-34 -16,-50 -6,-6 -34,-21 -42,-25 -30,-17 -55,-31 -86,-48l-21 -12c-7,-3 -14,-9 -22,-12 -13,-6 -30,-17 -43,-24 -12,-6 -30,-17 -43,-24 -15,-8 -40,-22 -53,-30 -16,-9 -38,-21 -54,-30 -7,-4 -15,-6 -26,-6 -12,0 -19,3 -26,7l-54 30c-24,14 -50,28 -75,42 -21,13 -42,23 -64,36 -3,2 -7,4 -11,6 -9,6 -23,13 -32,18 -13,8 -30,17 -42,24 -19,12 -45,24 -64,36 -4,2 -8,4 -11,6 -12,7 -19,15 -22,28 -3,9 -2,21 -2,32l0 333c0,13 -2,54 3,63zm593 -151l-43 0 0 -42 -42 -1c0,-2 0,-39 0,-42l42 0 0 -42 43 -1 0 43c9,0 36,-1 42,0l0 42c-6,2 -33,0 -42,0l0 43z"/>
  <polygon class="fil1" points="0,1419 1419,1419 1419,0 0,0 "/>
 </g>
</svg>
