<?xml version="1.0" encoding="UTF-8"?>
<!DOCTYPE svg PUBLIC "-//W3C//DTD SVG 1.1//EN" "http://www.w3.org/Graphics/SVG/1.1/DTD/svg11.dtd">
<!-- Creator: CorelDRAW X7 -->
<svg xmlns="http://www.w3.org/2000/svg" xml:space="preserve" width="50mm" height="50mm" version="1.1" style="shape-rendering:geometricPrecision; text-rendering:geometricPrecision; image-rendering:optimizeQuality; fill-rule:evenodd; clip-rule:evenodd"
viewBox="0 0 8557 8557"
 xmlns:xlink="http://www.w3.org/1999/xlink">
 <defs>
  <style type="text/css">
   <![CDATA[
    .fil1 {fill:none}
    .fil0 {fill:white;fill-opacity:0.301961}
   ]]>
  </style>
 </defs>
 <g id="Слой_x0020_1">
  <metadata id="CorelCorpID_0Corel-Layer"/>
  <path class="fil0" d="M5685 3695l1 232 232 0 0 -231c4,-5 -6,-4 14,-6 35,-3 212,0 222,3l1 233 231 1c9,21 4,93 4,120l0 104c-2,14 1,7 -5,11l-232 1 0 233 232 -1c4,5 2,-1 5,8 0,1 0,5 0,7 4,37 1,210 -4,222l-231 0 -2 232c-19,7 -166,3 -209,3 -30,1 -23,0 -26,-6l-1 -231 -233 0 1 233 -15 4c-3,1 -12,0 -15,0 -42,0 -188,4 -206,-3l0 -232 -233 -2c-7,-19 -2,-166 -3,-209 0,-26 -1,-22 5,-25l232 -1 0 -233 -232 0c-3,-3 -4,0 -5,-15 -3,-36 -1,-210 3,-221l232 0 2 -232c17,-8 167,-3 208,-4 35,0 23,0 27,5zm-1 701l234 0 0 -234 -235 0 1 234zm-289 732c-15,34 -100,120 -131,151 -147,146 -308,248 -516,325 -292,107 -666,105 -955,-6 -916,-355 -1187,-1437 -639,-2162 516,-684 1509,-756 2112,-156 29,29 117,121 129,149 -63,40 -185,107 -255,148l-256 147c-12,-9 -28,-28 -41,-40 -98,-90 -215,-161 -351,-197 -178,-47 -376,-33 -535,37 -301,134 -499,419 -498,757 1,564 547,929 1036,788 262,-75 351,-212 389,-235l385 221c41,24 87,49 126,73zm-1161 -3541c-110,13 -159,38 -240,84l-1032 580c-134,75 -267,153 -413,232 -139,76 -274,153 -412,232 -82,46 -141,77 -190,132 -148,165 -129,299 -129,515l0 1934c0,111 -2,188 41,280 79,173 189,216 342,302 128,72 288,167 413,232 130,69 281,160 412,232 139,76 280,159 413,232l515 289c36,20 67,40 104,58 75,37 171,59 267,49 104,-10 161,-41 238,-84 551,-312 1100,-622 1651,-928 67,-37 138,-76 206,-115 82,-48 141,-77 190,-133 149,-170 128,-296 128,-514l0 -1934c0,-112 2,-188 -40,-281 -80,-176 -191,-215 -342,-302 -265,-154 -559,-312 -825,-464l-826 -464c-68,-38 -137,-80 -207,-115 -72,-36 -170,-60 -264,-49z"/>
  <polygon class="fil1" points="0,8557 8557,8557 8557,0 0,0 "/>
 </g>
</svg>
