<?xml version="1.0" encoding="UTF-8"?>
<!DOCTYPE svg PUBLIC "-//W3C//DTD SVG 1.1//EN" "http://www.w3.org/Graphics/SVG/1.1/DTD/svg11.dtd">
<!-- Creator: CorelDRAW X7 -->
<svg xmlns="http://www.w3.org/2000/svg" xml:space="preserve" width="50mm" height="50mm" version="1.1" style="shape-rendering:geometricPrecision; text-rendering:geometricPrecision; image-rendering:optimizeQuality; fill-rule:evenodd; clip-rule:evenodd"
viewBox="0 0 343 343"
 xmlns:xlink="http://www.w3.org/1999/xlink">
 <defs>
  <style type="text/css">
   <![CDATA[
    .fil0 {fill:none}
    .fil1 {fill:white;fill-rule:nonzero}
   ]]>
  </style>
 </defs>
 <g id="Слой_x0020_1">
  <metadata id="CorelCorpID_0Corel-Layer"/>
  <path class="fil0" d="M172 0c94,0 171,77 171,172 0,94 -77,171 -171,171 -95,0 -172,-77 -172,-171 0,-95 77,-172 172,-172z"/>
  <path class="fil1" d="M121 112l101 0c5,0 9,4 9,9l0 101c0,5 -4,9 -9,9l-101 0c-5,0 -9,-4 -9,-9l0 -101c0,-5 4,-9 9,-9zm22 18l70 71 0 -71 -70 0zm58 83l-71 -70 0 70 71 0z"/>
 </g>
</svg>
