<?xml version="1.0" encoding="UTF-8"?>
<!DOCTYPE svg PUBLIC "-//W3C//DTD SVG 1.1//EN" "http://www.w3.org/Graphics/SVG/1.1/DTD/svg11.dtd">
<!-- Creator: CorelDRAW X7 -->
<svg xmlns="http://www.w3.org/2000/svg" xml:space="preserve" width="50mm" height="50mm" version="1.1" style="shape-rendering:geometricPrecision; text-rendering:geometricPrecision; image-rendering:optimizeQuality; fill-rule:evenodd; clip-rule:evenodd"
viewBox="0 0 277 277"
 xmlns:xlink="http://www.w3.org/1999/xlink">
 <defs>
  <style type="text/css">
   <![CDATA[
    .fil0 {fill:none}
    .fil1 {fill:white}
   ]]>
  </style>
 </defs>
 <g id="Слой_x0020_1">
  <metadata id="CorelCorpID_0Corel-Layer"/>
  <path class="fil0" d="M139 0c76,0 138,62 138,139 0,76 -62,138 -138,138 -77,0 -139,-62 -139,-138 0,-77 62,-139 139,-139z"/>
  <path class="fil1" d="M113 154c4,0 8,-5 11,-8 3,-3 7,-6 10,-10l14 -14c2,-2 3,-4 6,-4 3,0 5,2 5,5 0,3 -2,4 -4,6l-28 28c-3,3 -4,4 -4,7 0,3 3,6 7,6 3,0 7,-5 10,-8l24 -24c2,-2 3,-4 6,-4 4,0 6,5 4,8 -1,1 -35,35 -36,35 0,1 -20,4 -24,5 -1,-2 -19,-19 -19,-19l2 -11c1,-4 1,-7 2,-11 1,-3 3,-4 6,-7l29 -29c2,-3 2,-3 5,-3 2,0 4,3 4,5 0,3 -3,5 -4,7 -2,2 -4,3 -6,5l-22 23c-2,1 -4,3 -4,7 1,3 3,5 6,5zm33 -76c-1,0 -2,0 -5,2l-50 49c-3,4 -3,6 -4,11 -2,9 -4,17 -5,26 -1,5 -4,14 -4,19 -1,5 2,10 6,12 5,4 8,3 15,1 8,-2 17,-3 25,-5 26,-6 17,0 39,-22l34 -35c2,-1 2,-3 2,-5 1,-5 -2,-8 -5,-10 -5,-5 -10,-10 -15,-16 -5,-5 -10,-10 -15,-15 -3,-2 -5,-5 -8,-7 -2,-3 -6,-6 -10,-5z"/>
 </g>
</svg>
