<?xml version="1.0" encoding="UTF-8"?>
<!DOCTYPE svg PUBLIC "-//W3C//DTD SVG 1.1//EN" "http://www.w3.org/Graphics/SVG/1.1/DTD/svg11.dtd">
<!-- Creator: CorelDRAW X7 -->
<svg xmlns="http://www.w3.org/2000/svg" xml:space="preserve" width="50mm" height="50mm" version="1.1" style="shape-rendering:geometricPrecision; text-rendering:geometricPrecision; image-rendering:optimizeQuality; fill-rule:evenodd; clip-rule:evenodd"
viewBox="0 0 343 343"
 xmlns:xlink="http://www.w3.org/1999/xlink">
 <defs>
  <style type="text/css">
   <![CDATA[
    .fil0 {fill:none}
    .fil1 {fill:white}
   ]]>
  </style>
 </defs>
 <g id="Слой_x0020_1">
  <metadata id="CorelCorpID_0Corel-Layer"/>
  <path class="fil0" d="M172 0c94,0 171,77 171,172 0,94 -77,171 -171,171 -95,0 -172,-77 -172,-171 0,-95 77,-172 172,-172z"/>
  <path class="fil1" d="M151 211l41 0c0,1 -1,3 -1,5 -1,1 -1,2 -2,4l-4 8c-1,2 -3,4 -5,6 -5,5 -11,5 -17,0 -1,-1 -1,-2 -3,-3 0,-1 -1,-2 -2,-3 -2,-4 -2,-5 -4,-8 -1,-1 -1,-3 -2,-4l-1 -5zm16 -119l8 0c6,0 12,1 17,2 2,1 5,2 7,3 1,0 2,0 4,1 5,2 16,8 20,13 11,10 12,11 19,23 3,5 6,13 7,18 1,4 2,11 2,16 0,15 0,21 -6,35 0,1 -1,2 -1,3 -2,4 -7,11 -9,15 -12,15 -25,23 -43,28 -5,1 -12,2 -17,2 -15,0 -21,-1 -34,-6l-10 -5c-6,-3 -11,-7 -16,-12 -2,-2 -3,-3 -5,-5 -6,-7 -10,-16 -14,-24 -4,-10 -4,-20 -4,-31 0,-7 2,-18 5,-24 1,-5 2,-6 4,-10 2,-3 3,-6 5,-9 1,-1 2,-1 3,-2 5,-7 9,-11 17,-17 1,-1 3,-2 5,-4l10 -4 11 -4c4,-1 9,-2 15,-2zm31 140l5 -9c1,-2 3,-10 3,-12l19 0 -3 4c-4,5 -11,10 -16,13 -2,2 -5,3 -8,4zm-79 -21l18 0c0,4 4,13 5,16 1,2 2,4 3,5 -9,-5 -8,-3 -16,-10 -3,-2 -8,-8 -10,-11zm26 -33l53 0c0,4 -1,12 -1,15 -1,2 -1,4 -1,5l-49 0c0,-1 0,-3 0,-5 -1,-1 -1,-3 -1,-4l-1 -11zm88 20l-23 0c0,-3 1,-11 1,-20l27 0c-1,10 -5,19 -5,20zm-127 -20l26 0c0,9 2,17 2,20l-23 0c-1,-1 -2,-3 -2,-4 -2,-5 -3,-11 -3,-16zm41 -33l49 0 1 10c0,1 1,3 1,4 0,3 0,4 0,6l-53 0c0,-7 2,-18 2,-20zm63 0l23 0c0,2 4,10 5,20l-27 0c0,-10 -1,-16 -1,-20zm-78 18l0 2 -26 0c0,-3 1,-8 1,-10 1,-2 1,-4 2,-5 0,-2 1,-3 2,-5l23 0 -2 9c0,3 0,6 0,9zm39 -58c6,0 9,4 12,7 3,4 8,15 9,20l-41 0 6 -14c0,-1 1,-2 1,-2 2,-4 8,-11 13,-11zm27 6c7,3 13,6 18,11l3 3c1,1 2,2 3,3l3 4 -19 0c0,-2 -1,-4 -1,-6 -1,-2 -1,-3 -2,-5l-3 -8c-1,0 -1,0 -1,-1 0,0 0,-1 -1,-1zm-61 21l-18 0c0,-1 0,-1 1,-2 0,0 1,-1 1,-1 2,-3 4,-5 6,-6 1,-1 2,-2 3,-3 6,-5 9,-6 15,-9l-5 10c-1,2 -3,9 -3,11z"/>
 </g>
</svg>
