<?xml version="1.0" encoding="UTF-8"?>
<!DOCTYPE svg PUBLIC "-//W3C//DTD SVG 1.1//EN" "http://www.w3.org/Graphics/SVG/1.1/DTD/svg11.dtd">
<!-- Creator: CorelDRAW X7 -->
<svg xmlns="http://www.w3.org/2000/svg" xml:space="preserve" width="50mm" height="50mm" version="1.1" style="shape-rendering:geometricPrecision; text-rendering:geometricPrecision; image-rendering:optimizeQuality; fill-rule:evenodd; clip-rule:evenodd"
viewBox="0 0 287 287"
 xmlns:xlink="http://www.w3.org/1999/xlink">
 <defs>
  <style type="text/css">
   <![CDATA[
    .fil0 {fill:none}
    .fil1 {fill:white;fill-rule:nonzero}
   ]]>
  </style>
 </defs>
 <g id="Слой_x0020_1">
  <metadata id="CorelCorpID_0Corel-Layer"/>
  <path class="fil0" d="M144 0c79,0 143,64 143,144 0,79 -64,143 -143,143 -80,0 -144,-64 -144,-143 0,-80 64,-144 144,-144z"/>
  <path class="fil1" d="M144 88c9,0 17,3 23,10 7,6 10,14 10,23 0,10 -3,18 -10,24 0,1 -1,2 -2,3 5,2 10,6 14,10 9,9 15,22 15,36 0,3 -3,6 -6,6 -3,0 -6,-3 -6,-6l0 0 0 0c0,-11 -4,-21 -11,-28 -7,-7 -17,-11 -27,-11 -11,0 -21,4 -28,11 -7,7 -11,17 -11,28 0,3 -3,6 -6,6 -3,0 -6,-3 -6,-6l0 0 0 0 0 0c0,-14 6,-27 15,-36 4,-4 9,-8 15,-10 -1,-1 -2,-2 -3,-3 -6,-6 -10,-14 -10,-24 0,-9 4,-17 10,-23 6,-7 14,-10 24,-10zm15 18c-4,-4 -9,-7 -15,-7 -6,0 -12,3 -16,7 -4,4 -6,9 -6,15 0,6 2,12 6,16 4,4 10,6 16,6 6,0 11,-2 15,-6 4,-4 6,-10 6,-16 0,-6 -2,-11 -6,-15z"/>
 </g>
</svg>
